<svg width="1800" height="980" viewBox="0 0 1800 980" fill="none" xmlns="http://www.w3.org/2000/svg">
  <defs>
    <linearGradient id="bg" x1="0" y1="0" x2="1800" y2="980" gradientUnits="userSpaceOnUse">
      <stop stop-color="#08111F"/>
      <stop offset="1" stop-color="#111D37"/>
    </linearGradient>
    <linearGradient id="panel" x1="0" y1="0" x2="0" y2="1">
      <stop stop-color="#1D2A4D"/>
      <stop offset="1" stop-color="#15213E"/>
    </linearGradient>
    <linearGradient id="bar1" x1="0" y1="0" x2="1" y2="1">
      <stop stop-color="#6EA8FE"/>
      <stop offset="1" stop-color="#7E6DFF"/>
    </linearGradient>
    <linearGradient id="bar2" x1="0" y1="0" x2="1" y2="1">
      <stop stop-color="#4FD1C5"/>
      <stop offset="1" stop-color="#2BAE9C"/>
    </linearGradient>
    <linearGradient id="bar3" x1="0" y1="0" x2="1" y2="1">
      <stop stop-color="#F6C453"/>
      <stop offset="1" stop-color="#F38B49"/>
    </linearGradient>
    <linearGradient id="bar4" x1="0" y1="0" x2="1" y2="1">
      <stop stop-color="#F472B6"/>
      <stop offset="1" stop-color="#EC4899"/>
    </linearGradient>
    <filter id="shadow" x="-20%" y="-20%" width="140%" height="140%">
      <feDropShadow dx="0" dy="12" stdDeviation="14" flood-color="#020617" flood-opacity="0.45"/>
    </filter>
    <style>
      .title { font: 700 40px 'Segoe UI', Arial, sans-serif; fill: #F8FAFC; }
      .subtitle { font: 500 18px 'Segoe UI', Arial, sans-serif; fill: #C6D2F3; }
      .head { font: 700 18px 'Segoe UI', Arial, sans-serif; fill: #F8FAFC; }
      .task { font: 600 18px 'Segoe UI', Arial, sans-serif; fill: #EAF1FF; }
      .small { font: 500 14px 'Segoe UI', Arial, sans-serif; fill: #B8CAEF; }
      .week { font: 700 15px 'Segoe UI', Arial, sans-serif; fill: #D9E4FF; }
      .cell { font: 600 13px 'Segoe UI', Arial, sans-serif; fill: #F8FAFC; }
    </style>
  </defs>

  <rect width="1800" height="980" fill="url(#bg)"/>
  <circle cx="1550" cy="120" r="180" fill="#243D86" opacity="0.18"/>
  <circle cx="180" cy="820" r="220" fill="#1C3270" opacity="0.16"/>

  <text x="90" y="82" class="title">Project Gantt Chart</text>
  <text x="90" y="116" class="subtitle">Planned timeline based on your requirements: 8.5 weeks total</text>

  <rect x="70" y="150" width="1660" height="760" rx="28" fill="url(#panel)" stroke="#3B4E86" filter="url(#shadow)"/>

  <rect x="96" y="178" width="410" height="58" rx="16" fill="#101A34" stroke="#40548E"/>
  <text x="122" y="214" class="head">Workstream / Task</text>

  <rect x="516" y="178" width="1190" height="58" rx="16" fill="#101A34" stroke="#40548E"/>
  <text x="550" y="214" class="head">Schedule Timeline</text>

  <rect x="536" y="190" width="118" height="34" rx="10" fill="#223667" stroke="#4A61A8"/>
  <text x="575" y="212" class="week">W1</text>
  <rect x="662" y="190" width="118" height="34" rx="10" fill="#223667" stroke="#4A61A8"/>
  <text x="701" y="212" class="week">W2</text>
  <rect x="788" y="190" width="118" height="34" rx="10" fill="#223667" stroke="#4A61A8"/>
  <text x="827" y="212" class="week">W3</text>
  <rect x="914" y="190" width="118" height="34" rx="10" fill="#223667" stroke="#4A61A8"/>
  <text x="953" y="212" class="week">W4</text>
  <rect x="1040" y="190" width="118" height="34" rx="10" fill="#223667" stroke="#4A61A8"/>
  <text x="1079" y="212" class="week">W5</text>
  <rect x="1166" y="190" width="118" height="34" rx="10" fill="#223667" stroke="#4A61A8"/>
  <text x="1205" y="212" class="week">W6</text>
  <rect x="1292" y="190" width="118" height="34" rx="10" fill="#223667" stroke="#4A61A8"/>
  <text x="1331" y="212" class="week">W7</text>
  <rect x="1418" y="190" width="118" height="34" rx="10" fill="#223667" stroke="#4A61A8"/>
  <text x="1457" y="212" class="week">W8</text>
  <rect x="1544" y="190" width="142" height="34" rx="10" fill="#223667" stroke="#4A61A8"/>
  <text x="1584" y="212" class="week">W8.5</text>

  <g opacity="0.65">
    <line x1="536" y1="242" x2="536" y2="884" stroke="#344978"/>
    <line x1="662" y1="242" x2="662" y2="884" stroke="#344978"/>
    <line x1="788" y1="242" x2="788" y2="884" stroke="#344978"/>
    <line x1="914" y1="242" x2="914" y2="884" stroke="#344978"/>
    <line x1="1040" y1="242" x2="1040" y2="884" stroke="#344978"/>
    <line x1="1166" y1="242" x2="1166" y2="884" stroke="#344978"/>
    <line x1="1292" y1="242" x2="1292" y2="884" stroke="#344978"/>
    <line x1="1418" y1="242" x2="1418" y2="884" stroke="#344978"/>
    <line x1="1544" y1="242" x2="1544" y2="884" stroke="#344978"/>
    <line x1="1686" y1="242" x2="1686" y2="884" stroke="#344978"/>
  </g>

  <g opacity="0.45">
    <line x1="96" y1="242" x2="1706" y2="242" stroke="#344978"/>
    <line x1="96" y1="318" x2="1706" y2="318" stroke="#344978"/>
    <line x1="96" y1="394" x2="1706" y2="394" stroke="#344978"/>
    <line x1="96" y1="470" x2="1706" y2="470" stroke="#344978"/>
    <line x1="96" y1="546" x2="1706" y2="546" stroke="#344978"/>
    <line x1="96" y1="622" x2="1706" y2="622" stroke="#344978"/>
    <line x1="96" y1="698" x2="1706" y2="698" stroke="#344978"/>
    <line x1="96" y1="774" x2="1706" y2="774" stroke="#344978"/>
    <line x1="96" y1="850" x2="1706" y2="850" stroke="#344978"/>
  </g>

  <text x="118" y="288" class="task">Requirement Gathering</text>
  <text x="118" y="312" class="small">2-3 days</text>
  <rect x="536" y="260" width="54" height="34" rx="12" fill="url(#bar1)"/>
  <text x="550" y="282" class="cell">0.5w</text>

  <text x="118" y="364" class="task">Architecture Design</text>
  <text x="118" y="388" class="small">2 weeks</text>
  <rect x="598" y="336" width="244" height="34" rx="12" fill="url(#bar2)"/>
  <text x="681" y="358" class="cell">2w</text>

  <text x="118" y="440" class="task">Database Setup</text>
  <text x="118" y="464" class="small">3 weeks</text>
  <rect x="850" y="412" width="370" height="34" rx="12" fill="url(#bar3)"/>
  <text x="1025" y="434" class="cell">3w</text>

  <text x="118" y="516" class="task">RAG Model</text>
  <text x="118" y="540" class="small">1 week</text>
  <rect x="1228" y="488" width="118" height="34" rx="12" fill="url(#bar4)"/>
  <text x="1268" y="510" class="cell">1w</text>

  <text x="118" y="592" class="task">Frontend UI - User</text>
  <text x="118" y="616" class="small">1 week</text>
  <rect x="1354" y="564" width="118" height="34" rx="12" fill="url(#bar1)"/>
  <text x="1394" y="586" class="cell">1w</text>

  <text x="118" y="668" class="task">Frontend UI - Admin</text>
  <text x="118" y="692" class="small">0.5 week</text>
  <rect x="1480" y="640" width="55" height="34" rx="12" fill="url(#bar2)"/>
  <text x="1492" y="662" class="cell">0.5</text>

  <text x="118" y="744" class="task">Admin Panel Backend</text>
  <text x="118" y="768" class="small">1.5 weeks</text>
  <rect x="1480" y="716" width="173" height="34" rx="12" fill="url(#bar3)"/>
  <text x="1542" y="738" class="cell">1.5w</text>

  <text x="118" y="820" class="task">API Integration</text>
  <text x="118" y="844" class="small">2 days</text>
  <rect x="1661" y="792" width="33" height="34" rx="12" fill="url(#bar4)"/>
  <text x="1664" y="814" class="cell">2d</text>

  <text x="118" y="896" class="task">System + UAT Testing</text>
  <text x="118" y="920" class="small">1 week</text>
  <rect x="1544" y="868" width="118" height="34" rx="12" fill="url(#bar1)"/>
  <text x="1584" y="890" class="cell">1w</text>

  <rect x="98" y="928" width="660" height="24" rx="12" fill="#0F1932" stroke="#33497B"/>
  <text x="122" y="945" class="small">Assumption: tasks are mostly sequential, with user UI beginning after RAG and admin/testing placed near final delivery.</text>
</svg>
